<!DOCTYPE svg PUBLIC "-//W3C//DTD SVG 1.1//EN" "http://www.w3.org/Graphics/SVG/1.1/DTD/svg11.dtd">
<!-- Uploaded to: SVG Repo, www.svgrepo.com, Transformed by: SVG Repo Mixer Tools -->
<svg fill="#468585" width="800px" height="800px" viewBox="0 0 24 24" id="music-player" data-name="Flat Color" xmlns="http://www.w3.org/2000/svg" class="icon flat-color">
<g id="SVGRepo_bgCarrier" stroke-width="0"/>
<g id="SVGRepo_tracerCarrier" stroke-linecap="round" stroke-linejoin="round"/>
<g id="SVGRepo_iconCarrier">
<path id="primary" d="M6,4V8A1,1,0,0,0,7,9a2,2,0,0,1,1.23.42A2,2,0,0,1,9,11v4a4,4,0,0,1,4,4v2a1,1,0,0,0,1,1h6a2,2,0,0,0,2-2V4a2,2,0,0,0-2-2H8A2,2,0,0,0,6,4Z" style="fill: #E85A5A;"/>
<path id="secondary" d="M2.76,11l4-1a1,1,0,0,1,.86.18A1,1,0,0,1,8,11v5.17A3,3,0,1,1,6,19H6V14.28L3.24,15a1,1,0,0,1-.86-.18A1,1,0,0,1,2,14V12A1,1,0,0,1,2.76,11ZM11,10a3,3,0,1,0,3-3A3,3,0,0,0,11,10Z" style="fill: #FFE4E4;"/>
</g>
</svg>